<svg version="1.1" xmlns="http://www.w3.org/2000/svg" viewBox="0 0 450 450">
  <path fill="currentColor" d="M329.017,193.815c0,0-2.118-6.411-3.782-8.112c-1.938-1.982-3.041-2.408-4.525-1.655c-2.319,1.175-2.002,3.77-0.818,4.963
			C322.05,191.186,329.017,193.815,329.017,193.815z"/>
		<path fill="currentColor" d="M332.858,185.51c-0.146-1.33-1.606-2.015-2.76-1.585c-1.326,0.493-2.286,1.859-2.156,3.297
			c0.16,1.769,1.14,4.106,2.97,6.379C330.622,190.855,333.025,187.026,332.858,185.51z"/>
		<path fill="currentColor" d="M321.283,197.096c1.575,0.217,4.81-1.901,7.662-1.519c-2.499-2.199-5.403-2.837-7.233-3.058
			c-1.488-0.179-2.614,0.674-2.762,1.906C318.821,195.499,319.9,196.906,321.283,197.096z"/>
		<path fill="currentColor" d="M333.581,240.077c-1.609-1.211-3.374-2.281-5.247-3.179l-0.711-0.341l2.912,5.495c0.296,0.559,0.632,1.193,1.194,1.684
			c0.506,0.442,1.357,0.847,2.228,0.659c0.786-0.17,1.376-0.847,1.435-1.646c0.013-0.176-0.001-0.351-0.041-0.52
			C335.143,241.351,334.377,240.676,333.581,240.077z"/>
		<path fill="currentColor" d="M336.221,236.313c-0.958-0.321-1.968-0.39-2.944-0.457l-5.06-0.348l5.885,4.034c0.451,0.31,0.918,0.629,1.466,0.844
			c0.636,0.249,1.276,0.299,1.799,0.14c0.698-0.212,1.184-0.825,1.239-1.563c0.021-0.279-0.024-0.562-0.128-0.819
			C338.156,237.352,337.333,236.685,336.221,236.313z"/>
		<path fill="currentColor" d="M332.638,235.425c0.91,0.114,2.092,0.204,3.152-0.12c1.127-0.343,1.915-1.155,2.011-2.111
			c0.079-1.06-0.866-2.132-1.982-2.249c-0.953-0.1-1.719,0.431-2.362,0.937l-0.229,0.18c-1.162,0.915-2.364,1.861-3.768,2.501
			l-1.02,0.464l1.12,0.031c0.701,0.02,1.422,0.127,2.12,0.231C332,235.337,332.319,235.385,332.638,235.425z"/>
		<path fill="currentColor" d="M376.45,197.242l-5.495-2.912l0.341,0.711c0.898,1.873,1.968,3.638,3.179,5.247c0.599,0.796,1.274,1.562,2.152,1.77
			c0.168,0.04,0.343,0.054,0.52,0.041c0.799-0.059,1.476-0.65,1.646-1.435c0.188-0.871-0.217-1.722-0.659-2.228
			C377.644,197.874,377.009,197.538,376.45,197.242z"/>
		<path fill="currentColor" d="M373.941,200.81l-4.034-5.885l0.348,5.059c0.067,0.976,0.137,1.985,0.457,2.943c0.371,1.112,1.039,1.935,1.831,2.258
			c0.257,0.105,0.54,0.149,0.819,0.129c0.737-0.055,1.351-0.541,1.563-1.239c0.159-0.524,0.11-1.163-0.14-1.799
			C374.57,201.728,374.25,201.262,373.941,200.81z"/>
		<path fill="currentColor" d="M369.688,198.388c-0.104-0.698-0.211-1.42-0.231-2.12l-0.031-1.12l-0.464,1.02c-0.639,1.404-1.586,2.606-2.501,3.768
			l-0.18,0.23c-0.505,0.643-1.036,1.409-0.937,2.362c0.117,1.116,1.189,2.061,2.249,1.982c0.956-0.096,1.768-0.884,2.111-2.011
			c0.323-1.061,0.234-2.242,0.12-3.152C369.783,199.026,369.736,198.707,369.688,198.388z"/>
</svg>
