<svg version="1.1" xmlns="http://www.w3.org/2000/svg" viewBox="0 0 450 450">
<path fill="currentColor" d="M395.156,187.044c-0.871-1.719-2.33-3.165-4.381-3.278c-2.609-0.144-4.75,1.485-4.452,4.237
		c0.066,0.608,1.173,0.758,1.476,0.281c1.613-2.548,5.251-0.821,4.677,1.92c-0.106-0.007-0.211-0.017-0.32-0.009
		c-1.215,0.09-2.129,1.151-2.039,2.366c0.025,0.335,0.129,0.643,0.284,0.918c-0.507,0.48-1.034,0.947-1.616,1.37
		c-5.115,3.715-9.639,1.103-14.413-1.576c-0.906-0.508-1.827-0.986-2.759-1.439c2.089,0.264,4.309,0.304,6.11-0.599
		c4.484-2.247,5.264-8.809-0.126-10.498c-4.284-1.343-8.654,5.055-4.141,7.431c1.338,0.704,3.866,1.24,4.73-0.559
		c0.866-1.801-0.067-3.396-2.055-3.599c-0.945-0.096-0.71,0.594-0.207,1.091c0.216,0.213,0.478,1.22-0.138,1.689
		c-0.662,0.503-2.099,0.16-2.433-0.994c-0.036-0.202-0.072-0.403-0.107-0.605c-0.066-0.742,0.099-1.428,0.495-2.058
		c1.803-2.212,5.467-1.505,6.05,1.358c0.595,2.917-1.324,5.717-4.333,6.163c-2.662,0.395-5.458,0.065-8.158-0.679
		c-1.064-0.404-2.141-0.778-3.233-1.113c-0.034-0.01-0.067-0.016-0.101-0.022c-1.182-0.477-2.323-1.013-3.403-1.582
		c1.065-0.013,2.158-0.207,2.935-0.93c0.959-0.892,1.3-2.262,0.384-3.32c-0.727-0.841-2.434-1.08-3.458-0.838
		c-1.155,0.273-2.132,1.43-1.087,2.439c0.247,0.238,1.674,0.336,1.362,0.035c-0.33-0.318-0.389-0.843-0.158-1.229
		c0.273-0.456,1.164-1.157,1.735-0.661c0.486,0.423,0.788,1.125,0.603,1.753c-0.645,2.198-3.892,1.917-6.26,1.429
		c0-0.021,0.003-0.041,0.002-0.063c-0.05-0.669-0.634-1.172-1.302-1.123c-0.425,0.031-0.781,0.279-0.973,0.627
		c-0.019-0.005-0.04-0.01-0.057-0.015c-0.405-0.1-0.816-0.192-1.23-0.278c-0.103-0.73-0.753-1.27-1.499-1.214
		c-0.512,0.038-0.937,0.348-1.154,0.777c-0.477-0.057-0.957-0.098-1.437-0.129c-0.248-0.708-0.941-1.196-1.725-1.138
		c-0.7,0.052-1.271,0.523-1.484,1.149c-0.563,0.044-1.122,0.116-1.676,0.21c-0.367-0.618-1.056-1.016-1.82-0.959
		c-1.047,0.078-1.836,0.972-1.802,2.012c-0.396,0.17-0.788,0.352-1.171,0.56c-0.085,0.046-0.168,0.097-0.253,0.145
		c-0.41-0.302-0.919-0.473-1.466-0.432c-1.215,0.09-2.129,1.151-2.04,2.366c0.014,0.19,0.06,0.37,0.118,0.543
		c-2.296,2.145-4.004,4.948-4.134,8.114c-0.001,0.018,0.001,0.035,0,0.052c-0.376-0.022-0.756-0.032-1.141-0.016
		c-3.166,0.13-5.969,1.838-8.114,4.134c-0.173-0.059-0.352-0.104-0.543-0.118c-1.215-0.09-2.276,0.825-2.366,2.04
		c-0.04,0.546,0.13,1.056,0.432,1.466c-0.048,0.084-0.099,0.168-0.145,0.253c-0.208,0.383-0.389,0.775-0.56,1.171
		c-1.04-0.034-1.934,0.755-2.012,1.802c-0.057,0.764,0.341,1.453,0.959,1.82c-0.094,0.554-0.166,1.113-0.21,1.676
		c-0.626,0.213-1.097,0.784-1.149,1.484c-0.058,0.783,0.43,1.477,1.138,1.725c0.031,0.48,0.073,0.96,0.129,1.437
		c-0.428,0.217-0.739,0.641-0.777,1.154c-0.055,0.746,0.484,1.396,1.214,1.499c0.087,0.414,0.178,0.825,0.278,1.23
		c0.004,0.017,0.01,0.038,0.015,0.057c-0.348,0.192-0.596,0.549-0.627,0.973c-0.049,0.669,0.454,1.253,1.122,1.302
		c0.021,0.001,0.042-0.002,0.063-0.002c0.487,2.368,0.768,5.615-1.429,6.26c-0.628,0.185-1.33-0.117-1.753-0.603
		c-0.496-0.57,0.204-1.462,0.66-1.735c0.386-0.231,0.911-0.172,1.229,0.158c0.301,0.312,0.204-1.115-0.035-1.362
		c-1.009-1.046-2.166-0.068-2.439,1.087c-0.242,1.024-0.003,2.731,0.838,3.458c1.059,0.916,2.429,0.575,3.32-0.384
		c0.722-0.777,0.917-1.87,0.929-2.935c0.569,1.079,1.105,2.22,1.582,3.402c0.007,0.034,0.012,0.067,0.022,0.101
		c0.335,1.092,0.709,2.168,1.113,3.232c0.744,2.7,1.073,5.495,0.679,8.158c-0.446,3.009-3.245,4.927-6.162,4.333
		c-2.863-0.583-3.57-4.248-1.358-6.05c0.63-0.396,1.316-0.561,2.058-0.495c0.202,0.036,0.403,0.072,0.605,0.107
		c1.155,0.334,1.498,1.772,0.995,2.433c-0.469,0.616-1.475,0.354-1.689,0.138c-0.497-0.503-1.187-0.738-1.091,0.207
		c0.203,1.988,1.798,2.921,3.599,2.055c1.799-0.865,1.263-3.392,0.559-4.73c-2.377-4.514-8.774-0.144-7.431,4.141
		c1.689,5.39,8.251,4.61,10.498,0.126c0.902-1.801,0.863-4.021,0.599-6.11c0.453,0.932,0.931,1.853,1.439,2.759
		c2.679,4.774,5.291,9.298,1.576,14.413c-0.423,0.582-0.89,1.109-1.37,1.616c-0.275-0.155-0.583-0.26-0.918-0.285
		c-1.214-0.09-2.276,0.825-2.366,2.04c-0.008,0.109,0.001,0.215,0.009,0.32c-2.74,0.574-4.467-3.065-1.92-4.677
		c0.478-0.302,0.328-1.41-0.28-1.476c-2.752-0.299-4.381,1.843-4.237,4.452c0.113,2.051,1.559,3.51,3.278,4.381
		c-3.003,2.892-1.348,8.388,3.293,8.688c0.807,0.052,0.641-1.168,0.156-1.479c-3.447-2.207-1.502-5.4,0.944-8.062
		c0.244,0.118,0.511,0.197,0.798,0.219c1.215,0.09,2.276-0.825,2.366-2.04c0.029-0.396-0.057-0.771-0.217-1.106
		c0.272-0.264,0.518-0.508,0.723-0.726c2.023-2.156,3.171-5.356,2.812-8.312c-0.388-3.192-1.969-5.797-3.602-8.499
		c-1.431-2.367-2.581-4.926-3.528-7.541c-0.171-0.6-0.365-1.193-0.573-1.782c0.645,0.64,1.357,1.171,2.151,1.536
		c4.872,2.24,9.327-1.053,11.206-5.521c1.36-3.233,2.923-8.164-3.939-11.885c-0.66-0.358-1.286-0.798-1.918-1.203
		c-1.978-1.268-2.917-5.276-0.197-5.81c0.635-0.125,0.257-1.35-0.17-1.525c-2.242-0.917-4.979,0.372-5.253,2.971
		c-0.15,1.422,0.105,2.679,0.741,3.765c-1.711-0.41-3.468-0.666-5.218-0.691c-0.065-0.038-0.122-0.037-0.171-0.005
		c-0.002,0-0.004,0-0.005,0c-0.441-0.003-0.403,0.921-0.066,1.334c0.006,0.009,0.01,0.02,0.016,0.029
		c1.346,1.87,3.167,2.593,5.143,2.944c-1.731,1.525-2.371,4.082-1.564,6.355c0.997,2.81,4.05,5.158,6.92,3.2
		c1.964-1.34,1.541-4.86-0.931-5.351c-1.19-0.236-2.308,0.16-2.856,1.277c-0.192,0.391-0.183,0.804-0.055,1.183
		c-1.431-1.557-0.617-4.887,1.588-5.386c1.061-0.24,2.406-0.026,3.43,0.262c5.998,1.681,2.759,10.374-0.104,12.259
		c-4.553,2.998-8.726-0.679-10.723-4.639c-0.543-1.078-1.019-2.202-1.421-3.354c0.197-0.199,0.331-0.462,0.353-0.762
		c0.046-0.618-0.383-1.158-0.975-1.276c-0.112-0.428-0.214-0.859-0.303-1.292c0.438-0.214,0.757-0.643,0.795-1.162
		c0.055-0.738-0.473-1.382-1.192-1.495c-0.038-0.416-0.065-0.832-0.079-1.247c0.723-0.152,1.292-0.759,1.35-1.531
		c0.06-0.807-0.458-1.523-1.202-1.749c0.061-0.469,0.143-0.934,0.241-1.395c0.976-0.041,1.793-0.8,1.867-1.798
		c0.049-0.661-0.24-1.269-0.719-1.659c0.171-0.369,0.355-0.734,0.558-1.091c0.187,0.068,0.381,0.121,0.589,0.136
		c1.214,0.09,2.276-0.825,2.366-2.039c0.039-0.526-0.119-1.018-0.4-1.42c0.135-0.133,0.268-0.266,0.409-0.396
		c2.158-1.981,4.93-3.027,7.8-3.02c0.065,0.657,0.181,1.298,0.359,1.909c0.026,0.09,0.393,1.092,0.436,1.189
		c0.926,2.083,2.589,3.789,4.988,4.327c-1.149,2.741-4.938,1.85-5.107,3.18c0.036,3.207,6.051,1.976,7.143-3.021
		c6.03-0.265,7.74-7.257,4.28-7.296c-1.463,0.186-0.248,4.745-4.128,5.357c-0.004-0.1,0.007-0.19,0-0.292
		c-0.22-2.977-2.106-4.995-4.484-6.052c-0.097-0.043-1.1-0.41-1.19-0.436c-0.25-0.073-0.506-0.134-0.765-0.188
		c0.198-2.533,1.217-4.943,2.981-6.866c0.13-0.141,0.263-0.274,0.396-0.409c0.402,0.281,0.894,0.439,1.42,0.4
		c1.215-0.09,2.129-1.151,2.039-2.366c-0.015-0.208-0.068-0.402-0.136-0.589c0.357-0.202,0.722-0.386,1.091-0.558
		c0.39,0.479,0.998,0.768,1.659,0.719c0.998-0.074,1.757-0.89,1.798-1.867c0.461-0.098,0.926-0.18,1.395-0.241
		c0.226,0.744,0.943,1.261,1.749,1.202c0.772-0.057,1.38-0.627,1.531-1.35c0.415,0.014,0.831,0.041,1.247,0.079
		c0.113,0.719,0.757,1.247,1.495,1.192c0.52-0.038,0.949-0.358,1.162-0.795c0.433,0.09,0.863,0.191,1.292,0.303
		c0.118,0.592,0.659,1.021,1.276,0.975c0.3-0.022,0.563-0.156,0.762-0.353c1.152,0.402,2.277,0.877,3.354,1.421
		c3.96,1.996,7.636,6.17,4.639,10.722c-1.885,2.863-10.578,6.102-12.259,0.104c-0.287-1.024-0.502-2.369-0.262-3.43
		c0.499-2.205,3.828-3.019,5.386-1.588c-0.379-0.128-0.792-0.137-1.184,0.055c-1.116,0.547-1.513,1.665-1.277,2.856
		c0.491,2.472,4.011,2.895,5.351,0.931c1.958-2.871-0.39-5.923-3.2-6.92c-2.273-0.807-4.83-0.168-6.355,1.564
		c-0.351-1.976-1.074-3.796-2.944-5.143c-0.008-0.006-0.02-0.011-0.029-0.016c-0.413-0.338-1.336-0.376-1.334,0.065
		c0,0.002,0,0.004,0,0.005c-0.032,0.049-0.033,0.106,0.005,0.171c0.026,1.75,0.281,3.507,0.691,5.218
		c-1.086-0.635-2.343-0.891-3.765-0.741c-2.599,0.274-3.889,3.011-2.971,5.253c0.175,0.427,1.4,0.805,1.525,0.17
		c0.534-2.72,4.543-1.781,5.81,0.197c0.405,0.632,0.845,1.258,1.203,1.918c3.721,6.862,8.652,5.298,11.885,3.939
		c4.468-1.879,7.761-6.335,5.521-11.206c-0.365-0.794-0.896-1.506-1.536-2.151c0.589,0.208,1.182,0.401,1.782,0.572
		c2.614,0.947,5.173,2.097,7.54,3.528c2.702,1.634,5.307,3.214,8.499,3.602c2.956,0.36,6.156-0.789,8.312-2.812
		c0.218-0.205,0.462-0.451,0.726-0.723c0.335,0.16,0.71,0.246,1.106,0.217c1.215-0.09,2.129-1.151,2.039-2.366
		c-0.021-0.286-0.1-0.554-0.219-0.798c2.662-2.445,5.855-4.391,8.062-0.944c0.31,0.485,1.531,0.651,1.479-0.156
		C403.544,185.696,398.048,184.041,395.156,187.044z M337.645,203.466c0.029,0.309,0.031,0.585,0.028,0.853
		c-2.601-0.324-4.223-2.102-4.53-4.678c-0.035-0.29-0.044-0.578-0.057-0.867C335.641,199.136,337.394,200.802,337.645,203.466z"/>
</svg>
