<svg version="1.1" xmlns="http://www.w3.org/2000/svg" viewBox="0 0 200 200">
  <path fill="currentColor" d="M10,200 C10,100 20,50 100,20 C140,5 180,10 190,12 C195,13 190,20 180,20 C150,20 120,30 100,50 C80,70 70,100 70,140 C70,160 50,190 10,200 Z" opacity="0.8"/>
  
  <!-- Swirls and Details -->
  <path fill="currentColor" d="M100,20 C110,10 130,0 150,5 C160,8 155,15 150,15 C130,15 120,25 115,30" opacity="0.6"/>
  <path fill="currentColor" d="M20,100 C10,110 0,130 5,150 C8,160 15,155 15,150 C15,130 25,120 30,115" opacity="0.6"/>

  <!-- Buds/Leaves -->
  <circle cx="180" cy="12" r="4" fill="currentColor" />
  <circle cx="12" cy="180" r="4" fill="currentColor" />
  <path d="M50,50 Q70,40 80,60 Q60,70 50,50" fill="currentColor" />
  <path d="M60,80 Q80,70 90,90 Q70,100 60,80" fill="currentColor" opacity="0.7" />
  
  <!-- Fine Lines -->
  <path d="M20,180 Q20,120 50,80 Q80,50 140,30" fill="none" stroke="currentColor" stroke-width="1.5" stroke-linecap="round" />
  <path d="M40,160 Q40,110 70,80" fill="none" stroke="currentColor" stroke-width="1" stroke-linecap="round" />
</svg>
