<?xml version="1.0" encoding="iso-8859-1"?>
<!-- Uploaded to: SVG Repo, www.svgrepo.com, Generator: SVG Repo Mixer Tools -->
<svg fill="#000000" height="800px" width="800px" version="1.1" id="Layer_1" xmlns="http://www.w3.org/2000/svg" xmlns:xlink="http://www.w3.org/1999/xlink" 
	 viewBox="0 0 512 512" xml:space="preserve">
<g>
	<g>
		<path d="M306.905,392.022c-6.343-6.323-14.77-9.804-23.732-9.804c-7.178,0-14.014,2.234-19.71,6.372
			c-5.695-4.138-12.53-6.372-19.709-6.372c-8.963,0-17.391,3.483-23.732,9.805c-6.347,6.328-9.842,14.744-9.842,23.696
			s3.495,17.368,9.839,23.692l34.39,34.324c2.421,2.412,5.636,3.74,9.054,3.74c3.422,0,6.639-1.329,9.06-3.745l34.382-34.314
			c6.345-6.33,9.839-14.745,9.839-23.696C316.745,406.767,313.25,398.352,306.905,392.022z M295.835,428.319l-32.372,32.307
			l-32.375-32.313c-3.375-3.365-5.234-7.838-5.234-12.595c0-4.757,1.859-9.232,5.235-12.598c3.381-3.373,7.879-5.23,12.664-5.23
			s9.283,1.857,12.662,5.227l1.51,1.507c3.058,3.054,8.012,3.054,11.072,0.002l1.51-1.506c3.382-3.373,7.881-5.23,12.666-5.23
			c4.785,0,9.282,1.857,12.664,5.23c3.375,3.367,5.234,7.84,5.234,12.598C301.07,420.475,299.211,424.951,295.835,428.319z"/>
	</g>
</g>
<g>
	<g>
		<path d="M370.692,299.123c15.892-15.678,21.588-38.585,14.867-59.779c-0.776-2.451-2.156-4.701-3.989-6.508
			c-1.822-1.795-4.077-3.142-6.522-3.897c-5.848-1.804-11.902-2.719-17.992-2.719c-1.606,0-3.198,0.079-4.784,0.202
			c2.529-6.211,3.927-12.988,3.927-20.085v-65.922c-0.001-6.409-5.24-11.623-11.677-11.623c-1.289,0-2.55,0.334-3.683,0.939v-8.912
			c0-5.84-4.769-10.591-10.63-10.591c-1.438,0-2.848,0.396-4.077,1.144l-9.729,5.926c-0.916-2.13-1.942-4.16-3.083-6.059
			c-4.036-6.721-9.142-11.431-14.854-13.868V48.656c0-6.618-5.409-12.002-12.058-12.002c-1.438,0-2.848,0.396-4.076,1.144
			l-0.753,0.459V27.109c0-5.99-4.893-10.865-10.907-10.865c-1.438,0-2.848,0.396-4.077,1.144l-11.467,6.985
			C249.01,9.621,238.191,0,225.61,0s-23.401,9.621-29.517,24.372l-11.467-6.985c-1.229-0.748-2.638-1.144-4.077-1.144
			c-6.014,0-10.908,4.874-10.908,10.865v11.147l-0.752-0.458c-1.229-0.748-2.638-1.144-4.077-1.144
			c-6.65,0-12.06,5.383-12.06,12.002c0,0,0.114,75.904,0.153,76.466c0,0.002,0,0.003,0,0.005
			c1.538,22.456,15.92,41.474,35.924,49.94c3.379,13.702,14.757,24.327,28.944,26.746v60.708l-5.428-5.355
			c6.443-21.041,0.716-43.683-15.034-59.221c-11.344-11.192-26.39-17.355-42.364-17.355c-6.091,0-12.144,0.915-17.997,2.721
			c-2.447,0.758-4.701,2.105-6.52,3.898c-1.831,1.806-3.209,4.052-3.985,6.499c-6.721,21.197-1.024,44.104,14.867,59.783
			c11.342,11.191,26.389,17.354,42.365,17.354c5.94,0,11.844-0.877,17.565-2.596l16.533,16.324v6.587h-45.676
			c-10.082,0-18.286,8.203-18.286,18.286v46.248c0,10.082,8.203,18.286,18.286,18.286h5.52l7.277,120.228
			c0.594,9.812,9.073,17.793,18.902,17.793h119.33c9.829,0,18.309-7.982,18.903-17.793l1.551-25.62
			c0.262-4.321-3.028-8.034-7.349-8.295c-4.322-0.255-8.034,3.028-8.295,7.349l-1.551,25.619c-0.097,1.605-1.65,3.067-3.258,3.067
			H203.797c-1.608,0-3.161-1.461-3.258-3.067l-7.22-119.28h92.308c4.328,0,7.837-3.508,7.837-7.837c0-4.329-3.509-7.837-7.837-7.837
			h-113.53c-1.416,0-2.612-1.196-2.612-2.612v-46.248c0-1.416,1.196-2.612,2.612-2.612h182.731c1.416,0,2.612,1.196,2.612,2.612
			v46.248c0,1.416-1.196,2.612-2.612,2.612h-35.764c-4.328,0-7.837,3.508-7.837,7.837c0,4.329,3.509,7.837,7.837,7.837h14.541
			l-3.898,64.404c-0.261,4.321,3.028,8.034,7.349,8.295c4.327,0.271,8.034-3.028,8.295-7.349l3.955-65.351h5.52
			c10.082,0,18.286-8.203,18.286-18.286v-46.248c0-3.632-1.077-7.011-2.91-9.86C370.366,299.431,370.532,299.281,370.692,299.123z
			 M199.039,244.039l-18.169-17.924c-3.082-3.042-8.043-3.007-11.082,0.074c-3.04,3.081-3.006,8.043,0.075,11.083l17.932,17.703
			c-1.37,0.125-2.744,0.196-4.12,0.196c-11.83,0-22.967-4.559-31.357-12.838c-11.675-11.519-15.864-28.336-10.883-43.965
			c0.026-0.025,0.074-0.062,0.142-0.083c4.35-1.343,8.848-2.023,13.371-2.023c11.828,0,22.966,4.559,31.357,12.839
			C195.75,218.421,200.29,231.213,199.039,244.039z M340.525,148.24v58.098c0,10.191-4.066,19.46-10.676,26.339
			c-4.724,2.388-9.149,5.402-13.159,9.02c-4.668,1.947-9.797,3.025-15.178,3.025h-24.577c-20.049,0-36.615-14.957-38.776-34.125
			L340.525,148.24z M274.159,170.314l-36.238,22.073l0.001-44.147L274.159,170.314z M253.282,139.245v-8.93l20.877,12.717
			l-7.329,4.464L253.282,139.245z M325.165,130.315v8.93l-35.941,21.893l-7.329-4.464L325.165,130.315z M289.223,111.128
			c3.652,0,7.537,2.982,10.661,8.183c1.128,1.879,2.114,3.985,2.946,6.258l-13.606,8.288l-13.529-8.242
			C278.681,117.314,283.522,111.129,289.223,111.128z M225.61,15.673c5.896,0,12.221,6.453,15.933,16.973l-15.933,9.706
			l-15.934-9.706C213.387,22.127,219.713,15.673,225.61,15.673z M185.313,36.16h0.001l25.23,15.369l-9.557,5.821l-15.675-9.548
			V36.16z M168.425,55.869l42.119,25.656l-42.119,25.656V55.869z M222.248,186.596h-0.001c-5.512-0.441-10.396-3.045-13.801-6.937
			c1.21,0.073,2.425,0.123,3.654,0.123h10.148V186.596z M222.247,140.419v23.691h-10.148c-22.617,0-41.272-17.007-43.459-38.706
			l71.955-43.83c3.696-2.252,4.867-7.074,2.615-10.77c-2.252-3.697-7.072-4.868-10.77-2.616l-6.832,4.162l-9.557-5.821
			l49.851-30.367v11.643l-6.296,3.835c-3.697,2.252-4.868,7.074-2.616,10.77c2.251,3.696,7.072,4.867,10.77,2.616l15.03-9.155
			v40.513c-8.734,2.55-16.106,10.215-20.74,20.922l-9.737-5.932c-1.229-0.748-2.638-1.144-4.077-1.144
			c-5.861,0-10.63,4.751-10.63,10.591v8.912c-1.134-0.605-2.395-0.939-3.684-0.939c-3.099,0-6.018,1.196-8.219,3.369
			C223.475,134.361,222.247,137.294,222.247,140.419z M281.386,291.16h-47.94v-52.101c5.635,7.295,13.101,13.143,21.717,16.854
			c3.196,12.378,13.435,21.989,26.223,24.404V291.16z M302.494,260.896c-3.141,2.697-7.24,4.343-11.735,4.343h-3.072
			c-4.79,0-9.133-1.865-12.342-4.885c0.53,0.016,1.056,0.04,1.589,0.04h24.577c0.411,0,0.815-0.021,1.223-0.03
			C302.651,260.539,302.577,260.72,302.494,260.896z M359.685,287.966c-1.179,1.163-2.42,2.24-3.702,3.253
			c-0.383-0.024-0.765-0.059-1.155-0.059h-21.06l8.37-8.257c3.081-3.04,3.115-8.001,0.075-11.083
			c-3.04-3.08-8.003-3.114-11.082-0.074l-18.193,17.948c-1.245-12.806,3.297-25.625,12.76-34.961
			c8.393-8.28,19.528-12.839,31.357-12.839c4.522,0,9.021,0.68,13.37,2.023c0.07,0.022,0.117,0.059,0.191,0.16
			C375.548,259.631,371.359,276.447,359.685,287.966z"/>
	</g>
</g>
</svg>